<?xml version="1.0" encoding="UTF-8" standalone="no"?>
<!DOCTYPE svg PUBLIC "-//W3C//DTD SVG 1.1//EN" "http://www.w3.org/Graphics/SVG/1.1/DTD/svg11.dtd">
<!-- Created with Vectornator (http://vectornator.io/) -->
<svg height="100%" stroke-miterlimit="10" style="fill-rule:nonzero;clip-rule:evenodd;stroke-linecap:round;stroke-linejoin:round;" version="1.1" viewBox="0 0 786.542 95.5593" width="100%" xml:space="preserve" xmlns="http://www.w3.org/2000/svg" xmlns:xlink="http://www.w3.org/1999/xlink">
<defs>
<linearGradient gradientTransform="matrix(1 0 0 1 -54.875 -159.525)" gradientUnits="userSpaceOnUse" id="LinearGradient" x1="54.875" x2="841.125" y1="250.047" y2="250.047">
<stop offset="0" stop-color="#00afc3"/>
<stop offset="0.500312" stop-color="#8099ff"/>
<stop offset="0.983405" stop-color="#ff52f9"/>
</linearGradient>
</defs>
<clipPath id="ArtboardFrame">
<rect height="95.5593" width="786.542" x="0" y="0"/>
</clipPath>
<g clip-path="url(#ArtboardFrame)" id="Background">
<path d="M4.26326e-14 7.10543e-14L786.25 7.10543e-14L786.25 47.8451L786.25 95.6935L4.26326e-14 95.6935L4.26326e-14 7.10543e-14Z" fill="#171834" fill-rule="nonzero" opacity="1" stroke="none"/>
</g>
<g clip-path="url(#ArtboardFrame)" id="Line">
<path d="M0 85.3497L0 95.6935L363.125 95.6935L363.125 90.5685L363.125 85.3497L0 85.3497ZM394.344 85.3497L394.344 95.6935L786.25 95.6935L786.25 85.3497L394.344 85.3497Z" fill="url(#LinearGradient)" fill-rule="nonzero" opacity="1" stroke="none"/>
</g>
<g clip-path="url(#ArtboardFrame)" id="Text">
<g opacity="1">
<path d="M39.3643 74.2188C32.5935 74.2188 27.4584 71.9889 23.959 67.5293C20.4597 63.0697 18.71 56.5104 18.71 47.8516C18.71 38.8672 20.4597 32.0638 23.959 27.4414C27.4584 22.819 32.5935 20.5078 39.3643 20.5078C43.2381 20.5078 46.3875 21.4193 48.8126 23.2422C51.2378 25.0651 52.6619 27.6042 53.0851 30.8594L57.089 30.8594L54.0617 45.6055C54.0617 40.2669 53.0118 36.2142 50.9122 33.4473C48.8126 30.6803 45.7283 29.2969 41.6593 29.2969C37.4926 29.2969 34.335 30.8594 32.1866 33.9844C30.0382 37.1094 28.9639 41.7318 28.9639 47.8516C28.9639 53.6458 30.0382 58.0241 32.1866 60.9863C34.335 63.9486 37.4926 65.4297 41.6593 65.4297C45.7283 65.4297 48.8126 64.0462 50.9122 61.2793C53.0118 58.5124 54.0617 54.4596 54.0617 49.1211L57.5773 63.8672L53.0851 63.8672C52.7596 67.1224 51.3842 69.6615 48.9591 71.4844C46.534 73.3073 43.3357 74.2188 39.3643 74.2188ZM55.1359 73.7305L54.0617 63.5742L54.0617 0L64.4132 0L64.4132 73.2422L55.1359 73.7305Z" fill="#ffffff" fill-rule="nonzero" opacity="1" stroke="none"/>
<path d="M106.406 74.2188C97.5839 74.2188 90.7724 71.8994 85.9709 67.2607C81.1695 62.6221 78.7687 55.957 78.7687 47.2656C78.7687 38.8021 80.8033 32.2266 84.8723 27.5391C88.9413 22.8516 94.6868 20.5078 102.109 20.5078C109.107 20.5078 114.519 22.6237 118.344 26.8555C122.169 31.0872 124.081 37.2396 124.081 45.3125C124.081 47.6888 123.984 49.9023 123.788 51.9531L87.4602 51.9531L87.4602 44.043L114.706 44.043C114.706 39.388 113.6 35.8154 111.386 33.3252C109.172 30.835 106.113 29.5898 102.206 29.5898C97.8118 29.5898 94.4019 31.0872 91.9768 34.082C89.5516 37.0768 88.3391 41.3086 88.3391 46.7773C88.3391 52.7669 90.0074 57.3242 93.344 60.4492C96.6806 63.5742 101.425 65.1367 107.577 65.1367C109.726 65.1367 111.842 65.0146 113.925 64.7705C116.008 64.5264 118.124 64.1927 120.273 63.7695L121.542 72.8516C118.482 73.4375 115.683 73.8118 113.144 73.9746C110.605 74.1374 108.359 74.2188 106.406 74.2188Z" fill="#ffffff" fill-rule="nonzero" opacity="1" stroke="none"/>
<path d="M153.622 73.2422L135.117 21.4844L146.152 21.4844L160.068 64.4531L160.947 64.4531L174.863 21.4844L185.898 21.4844L167.392 73.2422L153.622 73.2422Z" fill="#ffffff" fill-rule="nonzero" opacity="1" stroke="none"/>
<path d="M223.593 74.2188C214.772 74.2188 207.96 71.8994 203.159 67.2607C198.357 62.6221 195.957 55.957 195.957 47.2656C195.957 38.8021 197.991 32.2266 202.06 27.5391C206.129 22.8516 211.875 20.5078 219.296 20.5078C226.295 20.5078 231.707 22.6237 235.532 26.8555C239.357 31.0872 241.269 37.2396 241.269 45.3125C241.269 47.6888 241.171 49.9023 240.976 51.9531L204.648 51.9531L204.648 44.043L231.894 44.043C231.894 39.388 230.787 35.8154 228.574 33.3252C226.36 30.835 223.3 29.5898 219.394 29.5898C215 29.5898 211.59 31.0872 209.165 34.082C206.739 37.0768 205.527 41.3086 205.527 46.7773C205.527 52.7669 207.195 57.3242 210.532 60.4492C213.868 63.5742 218.613 65.1367 224.765 65.1367C226.914 65.1367 229.03 65.0146 231.113 64.7705C233.196 64.5264 235.312 64.1927 237.461 63.7695L238.73 72.8516C235.67 73.4375 232.871 73.8118 230.332 73.9746C227.793 74.1374 225.546 74.2188 223.593 74.2188Z" fill="#ffffff" fill-rule="nonzero" opacity="1" stroke="none"/>
<path d="M285.41 74.2188C279.42 74.2188 275.091 72.5911 272.422 69.3359C269.752 66.0807 268.418 60.8724 268.418 53.7109L268.418 0L278.769 0L278.769 53.2227C278.769 55.957 279.03 58.1868 279.55 59.9121C280.071 61.6374 281.089 62.9069 282.602 63.7207C284.116 64.5345 286.354 64.9414 289.316 64.9414C292.018 64.9414 295.469 64.3229 299.668 63.0859L300.84 72.168C298.203 72.8841 295.672 73.4049 293.247 73.7305C290.822 74.056 288.209 74.2188 285.41 74.2188ZM253.183 9.08203L253.183 0L269.297 0L269.297 9.08203L253.183 9.08203Z" fill="#ffffff" fill-rule="nonzero" opacity="1" stroke="none"/>
<path d="M336.289 74.2188C329.127 74.2188 323.561 71.875 319.59 67.1875C315.618 62.5 313.633 55.8919 313.633 47.3633C313.633 38.8021 315.618 32.1859 319.59 27.5146C323.561 22.8434 329.127 20.5078 336.289 20.5078C343.483 20.5078 349.058 22.8434 353.013 27.5146C356.968 32.1859 358.945 38.8021 358.945 47.3633C358.945 55.8919 356.968 62.5 353.013 67.1875C349.058 71.875 343.483 74.2188 336.289 74.2188ZM336.289 64.9414C340.098 64.9414 343.035 63.4115 345.102 60.3516C347.169 57.2917 348.203 52.9622 348.203 47.3633C348.203 41.7318 347.169 37.3942 345.102 34.3506C343.035 31.307 340.098 29.7852 336.289 29.7852C332.48 29.7852 329.542 31.307 327.475 34.3506C325.408 37.3942 324.375 41.7318 324.375 47.3633C324.375 52.9622 325.408 57.2917 327.475 60.3516C329.542 63.4115 332.48 64.9414 336.289 64.9414Z" fill="#ffffff" fill-rule="nonzero" opacity="1" stroke="none"/>
<path d="M373.789 95.7031L373.789 21.4844L383.164 21.4844L384.141 32.4219L384.141 95.7031L373.789 95.7031ZM398.838 74.2188C394.867 74.2188 391.668 73.3073 389.243 71.4844C386.818 69.6615 385.443 67.1224 385.117 63.8672L380.625 63.8672L384.141 49.1211C384.141 54.4596 385.19 58.5124 387.29 61.2793C389.39 64.0462 392.474 65.4297 396.543 65.4297C400.71 65.4297 403.867 63.9486 406.016 60.9863C408.164 58.0241 409.238 53.6458 409.238 47.8516C409.238 41.7318 408.164 37.1094 406.016 33.9844C403.867 30.8594 400.71 29.2969 396.543 29.2969C392.474 29.2969 389.39 30.6803 387.29 33.4473C385.19 36.2142 384.141 40.2669 384.141 45.6055L380.625 30.8594L384.629 30.8594C385.085 27.6042 386.558 25.0651 389.048 23.2422C391.538 21.4193 394.801 20.5078 398.838 20.5078C405.641 20.5078 410.785 22.819 414.268 27.4414C417.751 32.0638 419.492 38.8672 419.492 47.8516C419.492 56.5104 417.751 63.0697 414.268 67.5293C410.785 71.9889 405.641 74.2188 398.838 74.2188Z" fill="#ffffff" fill-rule="nonzero" opacity="1" stroke="none"/>
<path d="M457.969 74.2188C449.147 74.2188 442.336 71.8994 437.534 67.2607C432.733 62.6221 430.332 55.957 430.332 47.2656C430.332 38.8021 432.367 32.2266 436.436 27.5391C440.505 22.8516 446.25 20.5078 453.672 20.5078C460.671 20.5078 466.083 22.6237 469.907 26.8555C473.732 31.0872 475.645 37.2396 475.645 45.3125C475.645 47.6888 475.547 49.9023 475.352 51.9531L439.024 51.9531L439.024 44.043L466.27 44.043C466.27 39.388 465.163 35.8154 462.949 33.3252C460.736 30.835 457.676 29.5898 453.77 29.5898C449.375 29.5898 445.965 31.0872 443.54 34.082C441.115 37.0768 439.902 41.3086 439.902 46.7773C439.902 52.7669 441.571 57.3242 444.907 60.4492C448.244 63.5742 452.988 65.1367 459.141 65.1367C461.289 65.1367 463.405 65.0146 465.488 64.7705C467.572 64.5264 469.688 64.1927 471.836 63.7695L473.106 72.8516C470.046 73.4375 467.246 73.8118 464.707 73.9746C462.168 74.1374 459.922 74.2188 457.969 74.2188Z" fill="#ffffff" fill-rule="nonzero" opacity="1" stroke="none"/>
<path d="M508.555 50.9766L505.528 34.7656L509.532 34.7656C510.117 25.2604 514.87 20.5078 523.789 20.5078C529.128 20.5078 533.002 22.0378 535.411 25.0977C537.819 28.1576 539.024 33.1055 539.024 39.9414L528.77 39.9414C528.77 36.1654 528.208 33.4473 527.085 31.7871C525.962 30.127 524.147 29.2969 521.641 29.2969C517.246 29.2969 513.967 31.1768 511.802 34.9365C509.637 38.6963 508.555 44.043 508.555 50.9766ZM486.68 73.2422L486.68 64.1602L521.25 64.1602L521.25 73.2422L486.68 73.2422ZM498.203 73.2422L498.203 21.4844L506.602 21.4844L508.555 36.3281L508.555 73.2422L498.203 73.2422ZM488.633 30.5664L488.633 21.4844L505.918 21.4844L506.895 30.5664L488.633 30.5664Z" fill="#ffffff" fill-rule="nonzero" opacity="1" stroke="none"/>
<path d="M625.303 74.2188C618.532 74.2188 613.397 71.9889 609.898 67.5293C606.399 63.0697 604.649 56.5104 604.649 47.8516C604.649 38.8672 606.399 32.0638 609.898 27.4414C613.397 22.819 618.532 20.5078 625.303 20.5078C629.177 20.5078 632.326 21.4193 634.752 23.2422C637.177 25.0651 638.601 27.6042 639.024 30.8594L643.028 30.8594L640.001 45.6055C640.001 40.2669 638.951 36.2142 636.851 33.4473C634.752 30.6803 631.667 29.2969 627.598 29.2969C623.432 29.2969 620.274 30.8594 618.126 33.9844C615.977 37.1094 614.903 41.7318 614.903 47.8516C614.903 53.6458 615.977 58.0241 618.126 60.9863C620.274 63.9486 623.432 65.4297 627.598 65.4297C631.667 65.4297 634.752 64.0462 636.851 61.2793C638.951 58.5124 640.001 54.4596 640.001 49.1211L643.516 63.8672L639.024 63.8672C638.699 67.1224 637.323 69.6615 634.898 71.4844C632.473 73.3073 629.275 74.2188 625.303 74.2188ZM641.075 73.7305L640.001 63.5742L640.001 0L650.352 0L650.352 73.2422L641.075 73.7305Z" fill="#ffffff" fill-rule="nonzero" opacity="1" stroke="none"/>
<path d="M692.344 74.2188C683.523 74.2188 676.711 71.8994 671.91 67.2607C667.108 62.6221 664.708 55.957 664.708 47.2656C664.708 38.8021 666.742 32.2266 670.811 27.5391C674.88 22.8516 680.626 20.5078 688.048 20.5078C695.046 20.5078 700.458 22.6237 704.283 26.8555C708.108 31.0872 710.02 37.2396 710.02 45.3125C710.02 47.6888 709.923 49.9023 709.727 51.9531L673.399 51.9531L673.399 44.043L700.645 44.043C700.645 39.388 699.539 35.8154 697.325 33.3252C695.111 30.835 692.052 29.5898 688.145 29.5898C683.751 29.5898 680.341 31.0872 677.916 34.082C675.491 37.0768 674.278 41.3086 674.278 46.7773C674.278 52.7669 675.946 57.3242 679.283 60.4492C682.62 63.5742 687.364 65.1367 693.516 65.1367C695.665 65.1367 697.781 65.0146 699.864 64.7705C701.947 64.5264 704.063 64.1927 706.212 63.7695L707.481 72.8516C704.421 73.4375 701.622 73.8118 699.083 73.9746C696.544 74.1374 694.298 74.2188 692.344 74.2188Z" fill="#ffffff" fill-rule="nonzero" opacity="1" stroke="none"/>
<path d="M757.188 73.2422L757.188 39.5508C757.188 36.4258 756.375 34.0169 754.747 32.3242C753.119 30.6315 750.841 29.7852 747.911 29.7852C739.773 29.7852 735.704 34.5703 735.704 44.1406L732.677 30.8594L736.681 30.8594C736.974 27.3763 738.243 24.7803 740.489 23.0713C742.735 21.3623 746.023 20.5078 750.352 20.5078C755.821 20.5078 760.053 22.168 763.048 25.4883C766.043 28.8086 767.54 33.4961 767.54 39.5508L767.54 73.2422L757.188 73.2422ZM725.352 73.2422L725.352 21.4844L734.727 21.4844L735.704 32.4219L735.704 73.2422L725.352 73.2422Z" fill="#ffffff" fill-rule="nonzero" opacity="1" stroke="none"/>
</g>
</g>
<g clip-path="url(#ArtboardFrame)" id="Dimensions" visibility="hidden">
<g opacity="1">
<g opacity="1">
<path d="M189.511 126.729C206.941 126.729 788.181 126.729 788.181 126.729" fill="none" stroke="#00ff00" stroke-linecap="butt" stroke-linejoin="round" stroke-width="0.5"/>
<g fill="#00ff00" stroke="none">
<path d="M787.744 126.729L786.431 128.479L789.931 126.729L786.431 124.979L787.744 126.729Z" fill="#00ff00"/>
<path d="M189.949 126.729L191.261 124.979L187.761 126.729L191.261 128.479L189.949 126.729Z" fill="#00ff00"/>
</g>
</g>
<path d="M481.942 137.621L480.731 129.399L480.574 129.399L479.725 127.27L481.619 127.27L482.84 136.059L483.016 136.059L483.895 127.27L485.946 127.27L484.481 137.621L481.942 137.621ZM476.766 137.621L475.594 127.27L477.547 127.27L478.328 136.059L478.504 136.059L479.725 127.27L481.619 127.27L480.75 129.399L480.614 129.399L479.403 137.621L476.766 137.621Z" fill="#00ff00" opacity="1" stroke="none"/>
</g>
<g opacity="1">
<path d="M463.262 157.769L463.262 157.829L491.411 157.829L491.411 157.769L463.262 157.769Z" fill="#00ff00" fill-rule="nonzero" opacity="1" stroke="none"/>
<g opacity="1">
<g opacity="1">
<path d="M480.892 158.429C480.088 158.429 473.968 158.429 473.968 158.429" fill="none" stroke="#00ff00" stroke-linecap="butt" stroke-linejoin="round" stroke-width="0.2"/>
<g fill="#00ff00" stroke="none">
<path d="M474.143 158.429L474.668 157.729L473.268 158.429L474.668 159.129L474.143 158.429Z" fill="#00ff00"/>
<path d="M480.717 158.429L480.192 159.129L481.592 158.429L480.192 157.729L480.717 158.429Z" fill="#00ff00"/>
</g>
</g>
<path d="M477.892 160.429L477.892 159.755C477.892 159.693 477.876 159.645 477.843 159.611C477.81 159.577 477.765 159.56 477.706 159.56C477.543 159.56 477.462 159.656 477.462 159.847L477.402 159.582L477.482 159.582C477.487 159.512 477.513 159.46 477.558 159.426C477.603 159.392 477.668 159.375 477.755 159.375C477.864 159.375 477.949 159.408 478.009 159.474C478.069 159.541 478.099 159.634 478.099 159.755L478.099 160.429L477.892 160.429ZM477.255 160.429L477.255 159.394L477.443 159.394L477.462 159.613L477.462 160.429L477.255 160.429Z" fill="#00ff00" opacity="1" stroke="none"/>
</g>
<g opacity="1">
<g opacity="1">
<path d="M489.218 158.429C488.413 158.429 482.293 158.429 482.293 158.429" fill="none" stroke="#00ff00" stroke-linecap="butt" stroke-linejoin="round" stroke-width="0.2"/>
<g fill="#00ff00" stroke="none">
<path d="M482.468 158.429L482.993 157.729L481.593 158.429L482.993 159.129L482.468 158.429Z" fill="#00ff00"/>
<path d="M489.043 158.429L488.518 159.129L489.918 158.429L488.518 157.729L489.043 158.429Z" fill="#00ff00"/>
</g>
</g>
<path d="M486.143 160.429L486.143 159.755C486.143 159.693 486.127 159.645 486.094 159.611C486.062 159.577 486.016 159.56 485.957 159.56C485.795 159.56 485.713 159.656 485.713 159.847L485.653 159.582L485.733 159.582C485.739 159.512 485.764 159.46 485.809 159.426C485.854 159.392 485.92 159.375 486.006 159.375C486.116 159.375 486.2 159.408 486.26 159.474C486.32 159.541 486.35 159.634 486.35 159.755L486.35 160.429L486.143 160.429ZM485.506 160.429L485.506 159.394L485.694 159.394L485.713 159.613L485.713 160.429L485.506 160.429Z" fill="#00ff00" opacity="1" stroke="none"/>
</g>
<g opacity="1">
<g opacity="1">
<path d="M472.567 158.429C471.763 158.429 465.643 158.429 465.643 158.429" fill="none" stroke="#00ff00" stroke-linecap="butt" stroke-linejoin="round" stroke-width="0.2"/>
<g fill="#00ff00" stroke="none">
<path d="M465.818 158.429L466.343 157.729L464.943 158.429L466.343 159.129L465.818 158.429Z" fill="#00ff00"/>
<path d="M472.392 158.429L471.867 159.129L473.267 158.429L471.867 157.729L472.392 158.429Z" fill="#00ff00"/>
</g>
</g>
<path d="M469.493 160.429L469.493 159.755C469.493 159.693 469.477 159.645 469.444 159.611C469.411 159.577 469.366 159.56 469.307 159.56C469.144 159.56 469.063 159.656 469.063 159.847L469.003 159.582L469.083 159.582C469.089 159.512 469.114 159.46 469.159 159.426C469.204 159.392 469.269 159.375 469.356 159.375C469.465 159.375 469.55 159.408 469.61 159.474C469.67 159.541 469.7 159.634 469.7 159.755L469.7 160.429L469.493 160.429ZM468.856 160.429L468.856 159.394L469.044 159.394L469.063 159.613L469.063 160.429L468.856 160.429Z" fill="#00ff00" opacity="1" stroke="none"/>
</g>
<g opacity="1">
<g opacity="1">
<path d="M488.818 157.065C488.818 156.82 488.818 155.109 488.818 155.109" fill="none" stroke="#00ff00" stroke-linecap="butt" stroke-linejoin="round" stroke-width="0.2"/>
<g fill="#00ff00" stroke="none">
<path d="M488.818 155.284L489.518 155.809L488.818 154.409L488.118 155.809L488.818 155.284Z" fill="#00ff00"/>
<path d="M488.818 156.89L488.118 156.365L488.818 157.765L489.518 156.365L488.818 156.89Z" fill="#00ff00"/>
</g>
</g>
<path d="M487.797 157.6L487.797 156.927C487.797 156.864 487.78 156.816 487.748 156.782C487.715 156.748 487.67 156.731 487.611 156.731C487.448 156.731 487.367 156.827 487.367 157.018L487.306 156.753L487.387 156.753C487.392 156.683 487.418 156.631 487.463 156.597C487.508 156.563 487.573 156.546 487.66 156.546C487.769 156.546 487.854 156.579 487.914 156.645C487.974 156.712 488.004 156.805 488.004 156.927L488.004 157.6L487.797 157.6ZM487.16 157.6L487.16 156.565L487.347 156.565L487.367 156.784L487.367 157.6L487.16 157.6Z" fill="#00ff00" opacity="1" stroke="none"/>
</g>
</g>
<g opacity="1">
<g opacity="1">
<path d="M172.654 160.361L804.983 160.361" fill="#ffffff" fill-rule="nonzero" stroke="none"/>
<path d="M803.23 160.361C785.341 160.361 174.405 160.361 174.405 160.361" fill="none" stroke="#00ff00" stroke-linecap="butt" stroke-linejoin="round" stroke-width="0.5"/>
<g fill="#00ff00" stroke="none">
<path d="M174.842 160.361L176.155 158.611L172.655 160.361L176.155 162.111L174.842 160.361Z" fill="#00ff00"/>
<path d="M802.793 160.361L801.48 162.111L804.98 160.361L801.48 158.611L802.793 160.361Z" fill="#00ff00"/>
</g>
</g>
<g fill="#00ff00" opacity="1" stroke="none">
<path d="M453.176 179.361L453.176 165.493L455.208 165.493L455.208 179.361L453.176 179.361ZM449.7 179.361L449.7 177.505L453.372 177.505L453.372 179.361L449.7 179.361ZM455.012 179.361L455.012 177.505L458.313 177.505L458.313 179.361L455.012 179.361ZM449.895 168.638L449.895 166.665L453.176 165.493L453.176 167.505L449.895 168.638Z"/>
<path d="M465.618 179.556C465.221 179.556 464.88 179.414 464.597 179.131C464.314 178.848 464.172 178.508 464.172 178.111C464.172 177.707 464.314 177.365 464.597 177.085C464.88 176.805 465.221 176.665 465.618 176.665C466.021 176.665 466.363 176.805 466.643 177.085C466.923 177.365 467.063 177.707 467.063 178.111C467.063 178.508 466.923 178.848 466.643 179.131C466.363 179.414 466.021 179.556 465.618 179.556Z"/>
<path d="M477.336 179.556C474.185 179.556 472.61 177.212 472.61 172.525C472.61 167.707 474.185 165.298 477.336 165.298C480.488 165.298 482.063 167.707 482.063 172.525C482.063 177.212 480.488 179.556 477.336 179.556ZM477.336 173.989C476.9 173.989 476.547 173.854 476.277 173.584C476.007 173.314 475.872 172.961 475.872 172.525C475.872 172.082 476.007 171.727 476.277 171.46C476.547 171.193 476.9 171.06 477.336 171.06C477.779 171.06 478.134 171.193 478.401 171.46C478.668 171.727 478.801 172.082 478.801 172.525C478.801 172.961 478.668 173.314 478.401 173.584C478.134 173.854 477.779 173.989 477.336 173.989ZM477.336 177.759C479.094 177.759 479.973 176.014 479.973 172.525C479.973 168.905 479.094 167.095 477.336 167.095C475.579 167.095 474.7 168.905 474.7 172.525C474.7 176.014 475.579 177.759 477.336 177.759Z"/>
<path d="M489.192 179.556C487.695 179.556 486.536 179.199 485.715 178.487C484.895 177.774 484.485 176.769 484.485 175.474L486.575 175.474C486.575 176.196 486.803 176.758 487.258 177.158C487.714 177.559 488.365 177.759 489.211 177.759C490.045 177.759 490.689 177.508 491.145 177.007C491.601 176.506 491.829 175.799 491.829 174.888C491.829 173.996 491.581 173.304 491.086 172.813C490.592 172.321 489.889 172.075 488.977 172.075C488.066 172.075 487.213 172.29 486.419 172.72L486.594 171.06C487.109 170.767 487.62 170.57 488.128 170.469C488.635 170.368 489.146 170.318 489.661 170.318C491.002 170.318 492.04 170.715 492.776 171.509C493.512 172.303 493.879 173.43 493.879 174.888C493.879 175.877 493.696 176.721 493.328 177.417C492.96 178.114 492.428 178.644 491.731 179.009C491.034 179.374 490.188 179.556 489.192 179.556ZM485.325 172.72L485.52 165.493L487.61 165.493L487.415 171.509L486.419 172.72L485.325 172.72ZM486.458 167.31L486.282 165.493L493.001 165.493L493.001 167.31L486.458 167.31Z"/>
<path d="M501.946 179.361L500.735 171.138L500.579 171.138L499.729 169.009L501.624 169.009L502.844 177.798L503.02 177.798L503.899 169.009L505.95 169.009L504.485 179.361L501.946 179.361ZM496.77 179.361L495.598 169.009L497.551 169.009L498.333 177.798L498.508 177.798L499.729 169.009L501.624 169.009L500.754 171.138L500.618 171.138L499.407 179.361L496.77 179.361Z"/>
</g>
</g>
<g opacity="1">
<g opacity="1">
<path d="M170.241 157.766L170.241 126.729" fill="#00ff00" fill-rule="nonzero" stroke="none"/>
<path d="M170.241 128.481C170.241 131.302 170.241 156.013 170.241 156.013" fill="none" stroke="#00ff00" stroke-linecap="butt" stroke-linejoin="round" stroke-width="0.5"/>
<g fill="#00ff00" stroke="none">
<path d="M170.241 155.576L168.491 154.263L170.241 157.763L171.991 154.263L170.241 155.576Z" fill="#00ff00"/>
<path d="M170.241 128.919L171.991 130.231L170.241 126.731L168.491 130.231L170.241 128.919Z" fill="#00ff00"/>
</g>
</g>
<path d="M164.341 157.073L164.341 150.334C164.341 149.677 164.178 149.171 163.852 148.816C163.527 148.461 163.071 148.284 162.485 148.284C160.857 148.284 160.044 149.273 160.044 151.252L159.438 148.596L160.239 148.596C160.298 147.9 160.551 147.38 161.001 147.039C161.45 146.697 162.107 146.526 162.973 146.526C164.067 146.526 164.913 146.858 165.512 147.522C166.111 148.186 166.411 149.124 166.411 150.334L166.411 157.073L164.341 157.073ZM157.973 157.073L157.973 142.424L160.044 142.424L160.044 157.073L157.973 157.073Z" fill="#00ff00" opacity="1" stroke="none"/>
</g>
<g opacity="1">
<g opacity="1">
<path d="M413.064 191.397L413.064 160.361" fill="#00ff00" fill-rule="nonzero" stroke="none"/>
<path d="M413.064 162.113C413.064 164.933 413.064 189.644 413.064 189.644" fill="none" stroke="#00ff00" stroke-linecap="butt" stroke-linejoin="round" stroke-width="0.5"/>
<g fill="#00ff00" stroke="none">
<path d="M413.064 189.207L411.314 187.894L413.064 191.394L414.814 187.894L413.064 189.207Z" fill="#00ff00"/>
<path d="M413.064 162.55L414.814 163.863L413.064 160.363L411.314 163.863L413.064 162.55Z" fill="#00ff00"/>
</g>
</g>
<path d="M407.164 190.704L407.164 183.966C407.164 183.308 407.001 182.802 406.676 182.447C406.35 182.092 405.895 181.915 405.309 181.915C403.681 181.915 402.867 182.904 402.867 184.884L402.262 182.227L403.063 182.227C403.121 181.531 403.375 181.011 403.824 180.67C404.273 180.328 404.931 180.157 405.797 180.157C406.891 180.157 407.737 180.489 408.336 181.153C408.935 181.817 409.234 182.755 409.234 183.966L409.234 190.704L407.164 190.704ZM400.797 190.704L400.797 176.055L402.867 176.055L402.867 190.704L400.797 190.704Z" fill="#00ff00" opacity="1" stroke="none"/>
</g>
<g opacity="1">
<g opacity="1">
<path d="M413.052 126.729L413.052 95.6935" fill="#00ff00" fill-rule="nonzero" stroke="none"/>
<path d="M413.052 97.4454C413.052 100.266 413.052 124.977 413.052 124.977" fill="none" stroke="#00ff00" stroke-linecap="butt" stroke-linejoin="round" stroke-width="0.5"/>
<g fill="#00ff00" stroke="none">
<path d="M413.052 124.54L411.302 123.227L413.052 126.727L414.802 123.227L413.052 124.54Z" fill="#00ff00"/>
<path d="M413.052 97.8829L414.802 99.1954L413.052 95.6954L411.302 99.1954L413.052 97.8829Z" fill="#00ff00"/>
</g>
</g>
<path d="M407.151 126.037L407.151 119.298C407.151 118.641 406.989 118.135 406.663 117.78C406.338 117.425 405.882 117.248 405.296 117.248C403.668 117.248 402.854 118.237 402.854 120.216L402.249 117.56L403.05 117.56C403.108 116.864 403.362 116.344 403.812 116.003C404.261 115.661 404.918 115.49 405.784 115.49C406.878 115.49 407.724 115.822 408.323 116.486C408.922 117.15 409.222 118.088 409.222 119.298L409.222 126.037L407.151 126.037ZM400.784 126.037L400.784 111.388L402.854 111.388L402.854 126.037L400.784 126.037Z" fill="#00ff00" opacity="1" stroke="none"/>
</g>
<g opacity="1">
<g opacity="1">
<path d="M95.6935 160.361L172.654 160.361" fill="#00ff00" fill-rule="nonzero" stroke="none"/>
<path d="M170.901 160.361C165.573 160.361 97.4438 160.361 97.4438 160.361" fill="none" stroke="#00ff00" stroke-linecap="butt" stroke-linejoin="round" stroke-width="0.5"/>
<g fill="#00ff00" stroke="none">
<path d="M97.8813 160.361L99.1938 158.611L95.6938 160.361L99.1938 162.111L97.8813 160.361Z" fill="#00ff00"/>
<path d="M170.464 160.361L169.151 162.111L172.651 160.361L169.151 158.611L170.464 160.361Z" fill="#00ff00"/>
</g>
</g>
<path d="M135.771 171.252L135.771 164.514C135.771 163.857 135.609 163.35 135.283 162.996C134.958 162.641 134.502 162.463 133.916 162.463C132.288 162.463 131.475 163.453 131.475 165.432L130.869 162.776L131.67 162.776C131.729 162.079 131.982 161.56 132.432 161.218C132.881 160.876 133.538 160.705 134.404 160.705C135.498 160.705 136.344 161.038 136.943 161.702C137.542 162.366 137.842 163.303 137.842 164.514L137.842 171.252L135.771 171.252ZM129.404 171.252L129.404 156.604L131.475 156.604L131.475 171.252L129.404 171.252Z" fill="#00ff00" opacity="1" stroke="none"/>
</g>
<g opacity="1">
<g opacity="1">
<path d="M804.983 160.361L881.943 160.361" fill="#00ff00" fill-rule="nonzero" stroke="none"/>
<path d="M880.191 160.361C874.862 160.361 806.734 160.361 806.734 160.361" fill="none" stroke="#00ff00" stroke-linecap="butt" stroke-linejoin="round" stroke-width="0.5"/>
<g fill="#00ff00" stroke="none">
<path d="M807.171 160.361L808.484 158.611L804.984 160.361L808.484 162.111L807.171 160.361Z" fill="#00ff00"/>
<path d="M879.754 160.361L878.441 162.111L881.941 160.361L878.441 158.611L879.754 160.361Z" fill="#00ff00"/>
</g>
</g>
<path d="M845.061 171.252L845.061 164.514C845.061 163.857 844.899 163.35 844.573 162.996C844.248 162.641 843.792 162.463 843.206 162.463C841.578 162.463 840.765 163.453 840.765 165.432L840.159 162.776L840.96 162.776C841.018 162.079 841.272 161.56 841.722 161.218C842.171 160.876 842.828 160.705 843.694 160.705C844.788 160.705 845.634 161.038 846.233 161.702C846.832 162.366 847.132 163.303 847.132 164.514L847.132 171.252L845.061 171.252ZM838.694 171.252L838.694 156.604L840.765 156.604L840.765 171.252L838.694 171.252Z" fill="#00ff00" opacity="1" stroke="none"/>
</g>
</g>
</svg>
